<mxfile host="app.diagrams.net" modified="2023-10-16T01:47:34.462Z" agent="Mozilla/5.0 (Windows NT 10.0; Win64; x64; rv:109.0) Gecko/20100101 Firefox/118.0" etag="rFOV7bnSD3sOll1WWPJz" version="22.0.4" type="github">
  <diagram id="C5RBs43oDa-KdzZeNtuy" name="Page-1">
    <mxGraphModel dx="880" dy="470" grid="1" gridSize="10" guides="1" tooltips="1" connect="1" arrows="1" fold="1" page="1" pageScale="1" pageWidth="827" pageHeight="1169" math="0" shadow="0">
      <root>
        <mxCell id="WIyWlLk6GJQsqaUBKTNV-0" />
        <mxCell id="WIyWlLk6GJQsqaUBKTNV-1" parent="WIyWlLk6GJQsqaUBKTNV-0" />
        <mxCell id="gEZN_Ou7P-rBHQeuVCMl-2" style="edgeStyle=orthogonalEdgeStyle;rounded=0;orthogonalLoop=1;jettySize=auto;html=1;exitX=0.5;exitY=1;exitDx=0;exitDy=0;exitPerimeter=0;entryX=0.5;entryY=0;entryDx=0;entryDy=0;" edge="1" parent="WIyWlLk6GJQsqaUBKTNV-1" source="gEZN_Ou7P-rBHQeuVCMl-0" target="gEZN_Ou7P-rBHQeuVCMl-1">
          <mxGeometry relative="1" as="geometry" />
        </mxCell>
        <mxCell id="gEZN_Ou7P-rBHQeuVCMl-0" value="Mulai" style="strokeWidth=2;html=1;shape=mxgraph.flowchart.start_1;whiteSpace=wrap;" vertex="1" parent="WIyWlLk6GJQsqaUBKTNV-1">
          <mxGeometry x="330" y="70" width="100" height="60" as="geometry" />
        </mxCell>
        <mxCell id="gEZN_Ou7P-rBHQeuVCMl-4" value="" style="edgeStyle=orthogonalEdgeStyle;rounded=0;orthogonalLoop=1;jettySize=auto;html=1;" edge="1" parent="WIyWlLk6GJQsqaUBKTNV-1" source="gEZN_Ou7P-rBHQeuVCMl-1" target="gEZN_Ou7P-rBHQeuVCMl-3">
          <mxGeometry relative="1" as="geometry" />
        </mxCell>
        <mxCell id="gEZN_Ou7P-rBHQeuVCMl-1" value="Masukan alas" style="shape=parallelogram;html=1;strokeWidth=2;perimeter=parallelogramPerimeter;whiteSpace=wrap;rounded=1;arcSize=12;size=0.23;" vertex="1" parent="WIyWlLk6GJQsqaUBKTNV-1">
          <mxGeometry x="315" y="180" width="130" height="60" as="geometry" />
        </mxCell>
        <mxCell id="gEZN_Ou7P-rBHQeuVCMl-6" style="edgeStyle=orthogonalEdgeStyle;rounded=0;orthogonalLoop=1;jettySize=auto;html=1;exitX=0.5;exitY=1;exitDx=0;exitDy=0;entryX=0.5;entryY=0;entryDx=0;entryDy=0;" edge="1" parent="WIyWlLk6GJQsqaUBKTNV-1" source="gEZN_Ou7P-rBHQeuVCMl-3" target="gEZN_Ou7P-rBHQeuVCMl-5">
          <mxGeometry relative="1" as="geometry" />
        </mxCell>
        <mxCell id="gEZN_Ou7P-rBHQeuVCMl-3" value="Masukan tinggi" style="shape=parallelogram;perimeter=parallelogramPerimeter;whiteSpace=wrap;html=1;fixedSize=1;strokeWidth=2;rounded=1;arcSize=12;" vertex="1" parent="WIyWlLk6GJQsqaUBKTNV-1">
          <mxGeometry x="255" y="310" width="250" height="60" as="geometry" />
        </mxCell>
        <mxCell id="gEZN_Ou7P-rBHQeuVCMl-9" value="" style="edgeStyle=orthogonalEdgeStyle;rounded=0;orthogonalLoop=1;jettySize=auto;html=1;" edge="1" parent="WIyWlLk6GJQsqaUBKTNV-1" source="gEZN_Ou7P-rBHQeuVCMl-5" target="gEZN_Ou7P-rBHQeuVCMl-8">
          <mxGeometry relative="1" as="geometry" />
        </mxCell>
        <mxCell id="gEZN_Ou7P-rBHQeuVCMl-5" value="Luas=1/2*(alas*tinggi)" style="rounded=1;whiteSpace=wrap;html=1;absoluteArcSize=1;arcSize=14;strokeWidth=2;" vertex="1" parent="WIyWlLk6GJQsqaUBKTNV-1">
          <mxGeometry x="265" y="430" width="230" height="60" as="geometry" />
        </mxCell>
        <mxCell id="gEZN_Ou7P-rBHQeuVCMl-8" value="Tampil luas segitiga" style="shape=parallelogram;perimeter=parallelogramPerimeter;whiteSpace=wrap;html=1;fixedSize=1;rounded=1;arcSize=14;strokeWidth=2;" vertex="1" parent="WIyWlLk6GJQsqaUBKTNV-1">
          <mxGeometry x="295" y="555" width="170" height="60" as="geometry" />
        </mxCell>
        <mxCell id="gEZN_Ou7P-rBHQeuVCMl-10" value="Selesai" style="strokeWidth=2;html=1;shape=mxgraph.flowchart.start_1;whiteSpace=wrap;" vertex="1" parent="WIyWlLk6GJQsqaUBKTNV-1">
          <mxGeometry x="330" y="660" width="100" height="60" as="geometry" />
        </mxCell>
        <mxCell id="gEZN_Ou7P-rBHQeuVCMl-11" style="edgeStyle=orthogonalEdgeStyle;rounded=0;orthogonalLoop=1;jettySize=auto;html=1;exitX=0.5;exitY=1;exitDx=0;exitDy=0;entryX=0.5;entryY=0;entryDx=0;entryDy=0;entryPerimeter=0;" edge="1" parent="WIyWlLk6GJQsqaUBKTNV-1" source="gEZN_Ou7P-rBHQeuVCMl-8" target="gEZN_Ou7P-rBHQeuVCMl-10">
          <mxGeometry relative="1" as="geometry" />
        </mxCell>
      </root>
    </mxGraphModel>
  </diagram>
</mxfile>
